# xmcd
#
# Track frame offsets:
#	150
#	11472
#	27040
#	38082
#	51265
#	68855
#	87092
#	106775
#	123437
#	137350
#	149720
#	163242
#	177432
#	191465
#
# Disc length: 2823 seconds
#
# Revision: 1
# Processed by: cddbd v1.5.2PL0 Copyright (c) Steve Scherf et al.
# Submitted via: audiograbber 1.83.01
#
DISCID=b90b050e
DTITLE=REGINALDO ROSSI E OUTROS - COLEÇÃO DE SUCESSOS
DYEAR=1900
DGENRE=BREGA
TTITLE0=REGINALDO ROSSI - PEDAÇO DE MEU CORAÇÃO
TTITLE1=REGINALDO ROSSI - ÚLTIMA CANÇÃO
TTITLE2=REGINALDO ROSSI - VOLTA
TTITLE3=REGINALDO ROSSI - TÔ DOIDÃO
TTITLE4=MAURÍCIO MATTAR - QUEM MANDOU
TTITLE5=MAURÍCIO MATTAR - BEIJO NA BOCA
TTITLE6=MAURÍCIO MATTAR - A GENTE NUNCA ESQUECE
TTITLE7=MAURÍCIO MATTAR - IMPOSSÍVEL TE ESQUECER
TTITLE8=CAUBY PEIXOTO - CONCEIÇÃO
TTITLE9=CAUBY PEIXOTO - A PÉROLA E O O RUBI
TTITLE10=CAUBY PEIXOTO - ACASO
TTITLE11=CAUBY PEIXOTO - QUERO VOCÊ
TTITLE12=FAFÁ DE BELÉM - MEU HOMEM
TTITLE13=FAFÁ DE BELÉM - ABANDONADA
EXTD=
EXTT0=
EXTT1=
EXTT2=
EXTT3=
EXTT4=
EXTT5=
EXTT6=
EXTT7=
EXTT8=
EXTT9=
EXTT10=
EXTT11=
EXTT12=
EXTT13=
PLAYORDER=
